<!-- Generated by IcoMoon.io -->
<svg version="1.1" xmlns="http://www.w3.org/2000/svg" width="14" height="14" viewBox="0 0 14 14">
<title>path</title>
<path fill="#e13223" d="M10.062 6.915c0.015 0.297-0.314 0.613-0.811 0.751-0.571 0.157-1.148 0.018-1.288-0.312s0.209-0.724 0.78-0.882c0.343-0.095 0.688-0.082 0.939 0.014v-3.364l-3.602 0.341-0.014 4.021c0.001 0.010 0.002 0.023 0.002 0.035s-0.001 0.025-0.002 0.037l0-0.002c-0.027 0.28-0.345 0.565-0.809 0.693-0.571 0.158-1.148 0.018-1.288-0.311s0.209-0.724 0.78-0.882c0.34-0.094 0.682-0.082 0.932 0.012v-4.44l4.382-0.439-0.001 4.728z"></path>
</svg>
