<!-- Generated by IcoMoon.io -->
<svg version="1.1" xmlns="http://www.w3.org/2000/svg" width="14" height="14" viewBox="0 0 14 14">
<title>path</title>
<path fill="#fff" d="M11.082 6.887c0.020 0.396-0.418 0.818-1.081 1.001-0.761 0.21-1.53 0.024-1.717-0.415s0.279-0.966 1.040-1.176c0.457-0.126 0.917-0.11 1.252 0.019v-4.486l-4.803 0.455-0.019 5.361c0.001 0.014 0.002 0.030 0.002 0.047s-0.001 0.033-0.002 0.049l0-0.002c-0.036 0.373-0.46 0.754-1.079 0.925-0.762 0.21-1.531 0.024-1.718-0.415s0.279-0.966 1.040-1.176c0.453-0.125 0.909-0.11 1.243 0.016v-5.92l5.842-0.585-0.001 6.303z"></path>
</svg>
