<?xml version="1.0" encoding="utf-8"?>
<svg version="1.0" id="Camada_1" xmlns="http://www.w3.org/2000/svg" viewBox="0 0 24 24" width="24" height="24">
  <path fill="#fff" d="M17.988 9.462v1.758h-1.758v1.269h1.758v1.759h1.269v-1.759h1.758v-1.269h-1.758v-1.758h-1.269zM18.768 17.076c-2.803 0-5.076-2.273-5.076-5.076s2.273-5.076 5.076-5.076 5.076 2.273 5.076 5.076-2.273 5.076-5.076 5.076zM11.999 15.22c0.029 0.574-0.607 1.187-1.568 1.452-1.104 0.304-2.22 0.035-2.491-0.602s0.404-1.401 1.509-1.705c0.663-0.183 1.33-0.159 1.816 0.028l0-6.506-6.965 0.66-0.027 7.775c0.004 0.045 0.004 0.090-0.001 0.135v0.001c-0.052 0.54-0.666 1.092-1.565 1.34-1.104 0.304-2.22 0.035-2.491-0.602s0.404-1.4 1.509-1.705c0.657-0.181 1.318-0.159 1.803 0.023v-8.585l8.472-0.849-0.001 9.142z"/>
</svg>
