<svg xmlns="http://www.w3.org/2000/svg" width="24" height="19" viewBox="0 0 24 19">
    <path fill="#FFF" fill-rule="nonzero" d="M8.795 13.558c-.817 0-1.605-.092-2.355-.253L3.015 16.73v-4.85C1.171 10.639 0 8.817 0 6.78 0 3.034 3.938 0 8.795 0c4.857 0 8.794 3.035 8.794 6.78 0 3.743-3.937 6.778-8.794 6.778zm8.333-11.305c1.1 1.291 1.744 2.85 1.744 4.526 0 3.916-3.51 7.186-8.145 7.91 1.312.602 2.84.953 4.478.953.817 0 1.604-.092 2.355-.253l3.424 3.425v-4.85C22.83 12.723 24 10.9 24 8.865c0-3.235-2.941-5.935-6.872-6.611z"/>
</svg>
