<!-- Generated by IcoMoon.io -->
<svg version="1.1" xmlns="http://www.w3.org/2000/svg" width="44" height="44" viewBox="0 0 44 44">
<title>group-4</title>
<path fill="#fff" opacity="0.5" d="M0 29.097l4.258 4.258 0.355-0.355c1.768-1.768 4.619-1.768 6.387 0s1.768 4.619 0 6.387l-0.355 0.355 4.258 4.258 29.097-29.097-4.258-4.258-0.355 0.355c-1.768 1.768-4.619 1.768-6.387 0s-1.768-4.619 0-6.387l0.355-0.355-4.258-4.258-29.097 29.097z"></path>
<path fill="none" opacity="0.5" stroke="#d1d1d1" stroke-width="2" stroke-miterlimit="4" stroke-linecap="butt" stroke-linejoin="miter" d="M1.414 29.097l2.859 2.859c2.17-1.815 5.394-1.703 7.433 0.337s2.152 5.264 0.337 7.433l2.859 2.859 27.683-27.683-2.859-2.859c-2.17 1.815-5.394 1.703-7.433-0.337s-2.152-5.263-0.337-7.433l-2.859-2.859-27.683 27.683z"></path>
<path fill="none" opacity="0.5" stroke="#d1d1d1" stroke-width="2" stroke-miterlimit="4" stroke-linecap="butt" stroke-linejoin="miter" d="M20 11l12.9 12.9"></path>
</svg>
