<svg xmlns="http://www.w3.org/2000/svg" width="28" height="22" viewBox="0 0 28 22">
    <path fill="none" fill-rule="nonzero" stroke="#FFF" d="M10.609.5L9.212 3.36a.83.83 0 0 1-.747.473H1.953c-.809 0-1.453.66-1.453 1.5V20c0 .84.644 1.5 1.453 1.5h24.094c.809 0 1.453-.66 1.453-1.5V5.333c0-.84-.644-1.5-1.453-1.5h-6.509a.83.83 0 0 1-.747-.468L17.39.5H10.61zm8.929 2.333h-.003.003zm-11.072 0h.003a.22.22 0 0 0-.003 0zm-.153.09a.165.165 0 0 0-.002.003l.002-.003zM14 6.5c3.034 0 5.5 2.466 5.5 5.5s-2.466 5.5-5.5 5.5A5.504 5.504 0 0 1 8.5 12c0-3.034 2.466-5.5 5.5-5.5z"/>
</svg>
