<!-- Generated by IcoMoon.io -->
<svg version="1.1" xmlns="http://www.w3.org/2000/svg" width="22" height="20" viewBox="0 0 22 20">
<title>change-plan-config</title>
<path fill="#d8d8d8" d="M1.5 4h20c0.276 0 0.5 0.224 0.5 0.5s-0.224 0.5-0.5 0.5h-20c-0.276 0-0.5-0.224-0.5-0.5s0.224-0.5 0.5-0.5z"></path>
<path fill="none" stroke="#e13223" stroke-width="1" stroke-miterlimit="4" stroke-linecap="butt" stroke-linejoin="miter" d="M2 4.5h19c0.276 0 0.5 0.224 0.5 0.5s-0.224 0.5-0.5 0.5h-19c-0.276 0-0.5-0.224-0.5-0.5s0.224-0.5 0.5-0.5z"></path>
<path fill="#d8d8d8" d="M0.5 15h10c0.276 0 0.5 0.224 0.5 0.5s-0.224 0.5-0.5 0.5h-10c-0.276 0-0.5-0.224-0.5-0.5s0.224-0.5 0.5-0.5z"></path>
<path fill="none" stroke="#e13223" stroke-width="1" stroke-miterlimit="4" stroke-linecap="butt" stroke-linejoin="miter" d="M1 15.5h9c0.276 0 0.5 0.224 0.5 0.5s-0.224 0.5-0.5 0.5h-9c-0.276 0-0.5-0.224-0.5-0.5s0.224-0.5 0.5-0.5z"></path>
<path fill="none" stroke="#e13223" stroke-width="1" stroke-miterlimit="4" stroke-linecap="round" stroke-linejoin="miter" d="M14 15.531c0.22 1.646 1.41 2.469 3.569 2.469s3.3-0.677 3.42-2.032c0.1-1.082-0.516-1.878-1.844-2.388-1.993-0.766-4.353-1.050-4.896-2.712-0.543-1.663 1.156-2.868 3.32-2.868 1.917 0 3.399 1.107 3.42 2.172"></path>
<path fill="#e13223" d="M17.5 6c0.276 0 0.5 0.224 0.5 0.5v13c0 0.276-0.224 0.5-0.5 0.5s-0.5-0.224-0.5-0.5v-13c0-0.276 0.224-0.5 0.5-0.5z"></path>
</svg>
