<svg xmlns="http://www.w3.org/2000/svg" width="16" height="16" viewBox="0 0 16 16">
  <path fill="#e13223" d="M16 8c0 4.418-3.582 8-8 8s-8-3.582-8-8c0-4.418 3.582-8 8-8s8 3.582 8 8z"/>
  <path fill="#fff" d="M10.828 5.171c0.391 0.391 0.391 1.024 0 1.414l-4.243 4.243c-0.391 0.391-1.024 0.391-1.414 0s-0.391-1.024 0-1.414l4.243-4.243c0.391-0.391 1.024-0.391 1.414 0z"/>
  <path fill="#fff"  d="M10.828 10.828c-0.391 0.391-1.024 0.391-1.414 0l-4.243-4.243c-0.391-0.391-0.391-1.024 0-1.414s1.024-0.391 1.414 0l4.243 4.243c0.391 0.391 0.391 1.024 0 1.414z"/>
</svg>
