<!-- Generated by IcoMoon.io -->
<svg version="1.1" xmlns="http://www.w3.org/2000/svg" width="20" height="22" viewBox="0 0 20 22">
<title>configuration-selected</title>
<path fill="#e13223" d="M9 7h7v1h-7v-1z"></path>
<path fill="#e13223" d="M9 14h7v1h-7v-1z"></path>
<path fill="#e13223" d="M3 3h12v2h-12v-2z"></path>
<path fill="#e13223" d="M3 7h5v5h-5v-5z"></path>
<path fill="#e13223" d="M3 14h5v5h-5v-5z"></path>
<path fill="#e13223" d="M9 9h8v1h-8v-1z"></path>
<path fill="#e13223" d="M9 16h8v1h-8v-1z"></path>
<path fill="#e13223" d="M19 21v-20h-18v20h18zM20 22h-20v-22h20v22z"></path>
<path fill="#e13223" d="M9 11h7v1h-7v-1z"></path>
<path fill="#e13223" d="M9 18h7v1h-7v-1z"></path>
</svg>
