<?xml version="1.0" encoding="utf-8"?>
<svg version="1.0" id="Camada_1" xmlns="http://www.w3.org/2000/svg" xmlns:xlink="http://www.w3.org/1999/xlink" width="32" height="32" viewBox="0 0 32 32">
  <path fill="#E55C54" d="M24 15.713c0 2.946-1.78 5.675-4.535 6.953l-0.495-0.993c2.362-1.096 3.888-3.435 3.888-5.96 0-3.645-3.076-6.611-6.857-6.611s-6.857 2.965-6.857 6.611c0 2.526 1.527 4.865 3.89 5.961l-0.496 0.993c-2.755-1.278-4.537-4.007-4.537-6.954 0-4.253 3.589-7.713 8-7.713s8 3.46 8 7.713zM16 2.667c7.352 0 13.333 5.977 13.333 13.324 0 5.145-2.878 9.739-7.511 11.99l-0.486-0.999c4.247-2.063 6.886-6.274 6.886-10.991 0-6.735-5.483-12.213-12.222-12.213s-12.222 5.479-12.222 12.213c0 4.662 2.718 8.985 6.923 11.010l-0.482 1c-4.588-2.209-7.552-6.923-7.552-12.010 0-7.346 5.982-13.324 13.333-13.324zM16 14.667c0.736 0 1.333 0.73 1.333 1.63 0 0.709-0.372 1.305-0.889 1.53v11.507h-0.889v-11.507c-0.517-0.225-0.889-0.821-0.889-1.53 0-0.899 0.597-1.63 1.333-1.63z"/>
</svg>
