<!-- Generated by IcoMoon.io -->
<svg version="1.1" xmlns="http://www.w3.org/2000/svg" width="18" height="18" viewBox="0 0 18 18">
<title>email-terms</title>
<path d="M15.849 14.565h-13.699c-0.708 0-1.284-0.576-1.284-1.284v-8.562c0-0.708 0.576-1.284 1.284-1.284h13.699c0.708 0 1.284 0.576 1.284 1.284v8.562c0 0.708-0.576 1.284-1.284 1.284zM2.342 4.291c0.015 0.008 0.031 0.009 0.045 0.018l6.656 4.4 6.569-4.398c0.015-0.010 0.032-0.012 0.048-0.020h-13.317zM16.278 4.719c0-0.072-0.022-0.136-0.054-0.196 0.067 0.181 0.031 0.387-0.136 0.499l-6.805 4.557c-0.072 0.048-0.155 0.072-0.238 0.072s-0.164-0.024-0.236-0.071l-6.894-4.557c-0.168-0.111-0.205-0.318-0.139-0.499-0.031 0.059-0.053 0.124-0.053 0.195v8.562c0 0.236 0.192 0.428 0.428 0.428h13.699c0.236 0 0.428-0.192 0.428-0.428v-8.562z" stroke='#fff'></path>
</svg>
