<!-- Generated by IcoMoon.io -->
<svg version="1.1" xmlns="http://www.w3.org/2000/svg" width="22" height="20" viewBox="0 0 22 20">
<title>feedback-config</title>
<path fill="none" stroke="#e13223" stroke-width="0.9091" stroke-miterlimit="4" stroke-linecap="butt" stroke-linejoin="miter" d="M18.443 0.455h-15.067c-0.775 0-1.518 0.309-2.066 0.859-0.528 0.53-0.855 1.262-0.855 2.069 0 0.002 0 0.003 0 0.005v-0 8.912c0 0.002 0 0.005 0 0.007 0 0.807 0.326 1.538 0.854 2.068l-0-0c0.548 0.55 1.291 0.859 2.067 0.859h1.625v3.415c0 1.009 0.371 1.172 1.109 0.487l4.208-3.903h8.132c0.807-0.002 1.537-0.331 2.063-0.862l0-0c0.526-0.53 0.851-1.26 0.851-2.066 0-0.002 0-0.005 0-0.007v0-8.914c0-0.001 0-0.002 0-0.004 0-0.808-0.326-1.539-0.855-2.069l0 0c-0.528-0.53-1.259-0.858-2.066-0.858-0 0-0 0-0 0h0z"></path>
<path fill="#e13223" d="M7.273 7.273c0 0.502-0.407 0.909-0.909 0.909s-0.909-0.407-0.909-0.909c0-0.502 0.407-0.909 0.909-0.909s0.909 0.407 0.909 0.909z"></path>
<path fill="#e13223" d="M11.818 7.273c0 0.502-0.407 0.909-0.909 0.909s-0.909-0.407-0.909-0.909c0-0.502 0.407-0.909 0.909-0.909s0.909 0.407 0.909 0.909z"></path>
<path fill="#e13223" d="M16.364 7.273c0 0.502-0.407 0.909-0.909 0.909s-0.909-0.407-0.909-0.909c0-0.502 0.407-0.909 0.909-0.909s0.909 0.407 0.909 0.909z"></path>
</svg>
