<!-- Generated by IcoMoon.io -->
<svg version="1.1" xmlns="http://www.w3.org/2000/svg" width="18" height="14" viewBox="0 0 18 14">
<title>group-5</title>
<path fill="none" stroke="#fff" stroke-width="1" stroke-miterlimit="4" stroke-linecap="butt" stroke-linejoin="miter" d="M5.923 0.5c-1.497 0-2.54 0.977-2.54 2.514 0 1.638 1.153 2.943 2.54 2.943 1.389 0 2.54-1.304 2.54-2.943 0.001-1.537-1.041-2.514-2.539-2.514zM11.342 11.969l-0.002-0.092c-0.003-0.181-0.006-0.325-0.010-0.468l0.001 0.058-0.002-0.083c-0.234-1.971-2.13-2.948-5.32-2.948l-0.096 0.003-0.043-0.002h-0.033c-3.19 0-5.087 0.976-5.32 2.948-0.005 0.154-0.009 0.359-0.012 0.564l-0 0.022c1.525 1.010 3.34 1.53 5.418 1.529 2.041 0 3.887-0.531 5.419-1.531z"></path>
<path fill="#fff" d="M14.5 2c0.276 0 0.5 0.224 0.5 0.5v6c0 0.276-0.224 0.5-0.5 0.5s-0.5-0.224-0.5-0.5v-6c0-0.276 0.224-0.5 0.5-0.5z"></path>
<path fill="#fff" d="M11.5 5h6c0.276 0 0.5 0.224 0.5 0.5s-0.224 0.5-0.5 0.5h-6c-0.276 0-0.5-0.224-0.5-0.5s0.224-0.5 0.5-0.5z"></path>
</svg>
