<!-- Generated by IcoMoon.io -->
<svg version="1.1" xmlns="http://www.w3.org/2000/svg" width="12" height="14" viewBox="0 0 12 14">
<title>group-5</title>
<path fill="#e13223" d="M5.923 0c1.68 0 3.040 1.111 3.040 3.014s-1.36 3.443-3.040 3.443c-1.678 0-3.040-1.541-3.040-3.443 0-1.904 1.362-3.014 3.040-3.014zM5.923 14c-2.31 0-4.291-0.616-5.923-1.769 0.006-0.294 0.013-0.842 0.020-0.906 0.297-2.5 2.787-3.389 5.817-3.389 0.030 0 0.057 0.002 0.086 0.003s0.058-0.003 0.086-0.003c3.030 0 5.52 0.89 5.817 3.389 0.007 0.064 0.015 0.612 0.020 0.906-1.623 1.13-3.636 1.769-5.923 1.769z"></path>
</svg>
