<svg xmlns="http://www.w3.org/2000/svg" width="28" height="18" viewBox="0 0 28 18">
    <path fill="#FFF" fill-rule="evenodd" d="M8.974 7.312v3.51h4.891c-.376 2.116-2.204 3.657-4.891 3.657-2.961 0-5.367-2.515-5.367-5.484 0-2.97 2.406-5.48 5.367-5.48 1.335 0 2.53.462 3.472 1.362v.006l2.53-2.537C13.421.894 11.396 0 8.973 0 4.016 0 0 4.028 0 9s4.016 9 8.974 9c5.183 0 8.615-3.656 8.615-8.798 0-.657-.062-1.288-.174-1.89H8.974zM28 7.875h-2.804V5.062h-2.244v2.813h-2.804v2.25h2.804v2.813h2.244v-2.813H28v-2.25z"/>
</svg>
