<svg xmlns="http://www.w3.org/2000/svg" width="28" height="23" viewBox="0 0 28 23">
    <g fill="none" fill-rule="evenodd" stroke="#000">
        <path d="M27.424 10.702c-2.95-4.03-7.49-7.202-13.409-7.202C8.102 3.5 3.67 6.604.593 10.72a.47.47 0 0 0 .01.572C3.55 15.325 8.093 18.5 14.014 18.5c5.914 0 10.347-3.104 13.406-7.198a.565.565 0 0 0 .003-.6zM14 16.5A5.486 5.486 0 0 1 8.5 11c0-3.048 2.452-5.5 5.5-5.5s5.5 2.452 5.5 5.5-2.452 5.5-5.5 5.5zm0-2a3.5 3.5 0 1 0 0-7 3.5 3.5 0 0 0 0 7zM24.858.491l-21.6 21.6"/>
    </g>
</svg>
