<!-- Generated by IcoMoon.io -->
<svg version="1.1" xmlns="http://www.w3.org/2000/svg" width="23" height="20" viewBox="0 0 23 20">
<title>invite-config</title>
<path fill="none" stroke="#e13223" stroke-width="1" stroke-miterlimit="4" stroke-linecap="butt" stroke-linejoin="miter" d="M8.5 0.5c-2.266 0-3.862 1.49-3.862 3.805 0 2.454 1.744 4.42 3.862 4.42 2.12 0 3.863-1.966 3.863-4.42 0-2.315-1.596-3.805-3.863-3.805zM16.495 17.212l-0.004-0.248c-0.004-0.256-0.008-0.462-0.014-0.668l0.002 0.078-0.005-0.137c-0.352-2.951-3.177-4.4-7.85-4.4l-0.057 0.002-0.077 0.002-0.057-0.002h-0.003l-0.055-0.001c-4.674 0-7.499 1.448-7.85 4.4-0.003 0.023-0.009 0.285-0.017 0.725l-0.004 0.251c2.246 1.51 4.926 2.287 7.996 2.286 3.016 0 5.742-0.794 7.995-2.288z"></path>
<path fill="#e13223" d="M18.5 4c0.276 0 0.5 0.224 0.5 0.5v8c0 0.276-0.224 0.5-0.5 0.5s-0.5-0.224-0.5-0.5v-8c0-0.276 0.224-0.5 0.5-0.5z"></path>
<path fill="#e13223" d="M14.5 8h8c0.276 0 0.5 0.224 0.5 0.5s-0.224 0.5-0.5 0.5h-8c-0.276 0-0.5-0.224-0.5-0.5s0.224-0.5 0.5-0.5z"></path>
</svg>
