<svg xmlns="http://www.w3.org/2000/svg" width="292" height="84" viewBox="0 0 292 84">
    <g fill="none" fill-rule="evenodd">
        <path fill="#000" d="M142 84H5.885a5.864 5.864 0 0 1-4.158-1.73A5.931 5.931 0 0 1 0 78.104V45.99h6.001V78H142V84zM292 46v32.105c0 1.614-.735 3.088-1.804 4.16-1.059 1.073-2.46 1.736-4.08 1.736H149.028v-5.99h136.927c.009 0 .022-10.67.04-32.011H292zM150.005 0h136.11c1.621 0 3.093.662 4.159 1.73A5.884 5.884 0 0 1 292 5.895v33.107h-5.998V5.998H150.005V0zm-7.995 0v6.006H6v32.007H0V5.895C0 4.271.662 2.796 1.727 1.73A5.86 5.86 0 0 1 5.885 0H142.01z"/>
        <path fill="#000" d="M246.218 41.015c.284-4.43 2.637-7.315 5.76-7.315 3.447 0 5.354 3.291 5.556 7.315h-11.316zm6.408 12.15c3.164 0 5.354-1.22 7.26-3.17l-1.662-1.869c-1.46 1.462-3.164 2.438-5.476 2.438-3.325 0-6.205-2.6-6.53-7.274h14.196c.04-.366.04-.934.04-1.22 0-6.379-3.163-10.93-8.476-10.93-4.949 0-8.72 4.511-8.72 10.972v.204c0 6.704 4.217 10.848 9.368 10.848zm-17.651 0c3.123 0 5.232-1.382 6.813-3.17l-1.703-1.95c-1.338 1.381-2.88 2.438-4.948 2.438-3.57 0-6.49-3.21-6.49-8.209v-.203c0-4.916 2.84-8.249 6.368-8.249 2.19 0 3.691 1.138 4.948 2.398l1.745-2.195c-1.623-1.625-3.65-2.884-6.652-2.884-5.273 0-9.41 4.51-9.41 10.93v.285c0 6.42 4.015 10.808 9.329 10.808zm-39.117-2.438c-2.515 0-4.502-1.667-4.502-4.308v-.122c0-2.681 1.866-4.43 5.232-4.43 2.069 0 3.772.367 5.11.854v2.642c0 3.088-2.595 5.404-5.84 5.364zm-.649 2.437c3.124 0 5.192-1.543 6.449-3.534v3.088h2.88V39.105c0-2.48-.73-4.43-2.028-5.73-1.38-1.381-3.367-2.113-5.922-2.113-2.596 0-4.664.732-6.651 1.707l.933 2.398c1.46-.773 3.285-1.423 5.394-1.423 3.407 0 5.394 1.828 5.394 5.242v1.26c-1.582-.488-3.204-.854-5.435-.854-4.664 0-7.787 2.479-7.787 6.827v.162c0 4.186 3.245 6.583 6.773 6.583zm-13.352-.446h2.92V23.379h-2.92v29.339zm-12.988-2.235c-3.327 0-6.409-3.17-6.409-8.127v-.407c0-4.958 3.082-8.167 6.41-8.167 3.243 0 6.002 3.048 6.002 8.208v.326c0 5.2-2.678 8.167-6.003 8.167zm-9.207 8.33h2.92V48.776c1.38 2.316 3.488 4.348 6.855 4.348 4.3 0 8.436-3.78 8.436-10.808v-.407c0-7.03-4.137-10.768-8.436-10.768-3.326 0-5.435 2.071-6.855 4.47v-4.064h-2.92v27.266zm-13.006-5.526c3.934 0 6.854-1.708 8.801-4.552l-5.07-4.591c-.81 1.097-1.663 1.788-3.001 1.788-1.744 0-3.042-1.626-3.042-4.349v-.08c0-2.439 1.217-4.146 3.082-4.146 1.176 0 2.028.65 2.84 1.83l5.15-4.633c-1.662-2.683-4.583-4.511-8.436-4.511-6.449 0-10.91 4.999-10.91 11.5v.447c0 6.46 4.34 11.297 10.586 11.297zm-20.708-.57h8.478V30.53h-8.478v22.187zm-.121-23.65h8.76v-5.81h-8.76v5.81zm-10.203 24.179c5.557 0 8.883-2.926 8.883-7.64v-.081c0-3.982-2.758-5.648-7.544-7.233-1.987-.65-2.555-.935-2.555-1.422v-.082c0-.406.364-.731 1.257-.731 1.582 0 3.935.772 5.84 1.87l2.8-5.568c-2.637-1.625-5.8-2.357-8.843-2.357-5.313 0-8.842 2.845-8.842 7.518v.081c0 4.308 3.002 5.852 7.666 7.314 2.028.65 2.434.976 2.434 1.463v.04c0 .488-.406.773-1.258.773-2.15 0-4.623-.894-6.935-2.398l-2.84 5.527c3.042 2.032 6.53 2.926 9.937 2.926zm-25.168 0c2.84 0 4.745-1.625 6.002-3.332v2.803h8.518V30.53h-8.518v12.801c0 1.503-.972 2.397-2.068 2.397-1.136 0-1.987-.894-1.987-2.397v-12.8h-8.517v15.522c0 4.39 2.433 7.193 6.57 7.193zm-41.676-.529h8.476V39.836c0-1.463.934-2.316 2.028-2.316 1.055 0 1.907.853 1.907 2.316v12.881h8.477V39.836c0-1.463.933-2.316 2.027-2.316 1.096 0 1.907.853 1.907 2.316v12.881h8.517V37.195c0-4.39-2.474-7.193-6.651-7.193-3.042 0-5.03 1.504-6.571 3.414-1.014-2.113-2.92-3.414-5.719-3.414-2.758 0-4.705 1.626-5.922 3.333V30.53H48.78v22.187z"/>
        <path fill="#E13223" d="M32.728 28c-.954 0-1.728.821-1.728 1.834l.007 24.338c-.001.328.082.66.256.96.5.859 1.56 1.126 2.37.595L52.16 43.573c.231-.145.433-.35.584-.61.5-.858.249-1.984-.56-2.515l-18.42-12.084A1.66 1.66 0 0 0 32.728 28zm189.153 4.333H225l-7.493 21.724C216.008 58.484 214.186 60 211.35 60c-1.337 0-2.593-.327-3.808-.984l.892-2.459c.81.45 1.7.779 2.754.779 1.58 0 2.592-.901 3.645-3.648l-8.1-21.355h3.159l6.318 17.584 5.67-17.584z"/>
    </g>
</svg>
