<svg xmlns="http://www.w3.org/2000/svg" width="120" height="20" viewBox="0 0 120 20">
    <g fill="none" fill-rule="evenodd">
        <path fill="#000" d="M112.37 9.306c.148-2.322 1.381-3.834 3.018-3.834 1.806 0 2.805 1.725 2.911 3.834h-5.93zm3.357 6.366c1.658 0 2.806-.639 3.805-1.66l-.872-.98c-.765.766-1.657 1.277-2.869 1.277-1.742 0-3.251-1.362-3.421-3.811h7.438a6.83 6.83 0 0 0 .022-.64c0-3.342-1.658-5.727-4.442-5.727-2.593 0-4.57 2.364-4.57 5.75v.106c0 3.513 2.21 5.685 4.91 5.685zm-9.25 0c1.637 0 2.742-.724 3.571-1.66l-.892-1.023c-.702.724-1.51 1.278-2.593 1.278-1.87 0-3.4-1.682-3.4-4.302V9.86c0-2.576 1.487-4.323 3.336-4.323 1.148 0 1.934.596 2.593 1.257l.914-1.15c-.85-.852-1.913-1.512-3.486-1.512-2.763 0-4.93 2.364-4.93 5.728v.15c0 3.363 2.103 5.663 4.888 5.663zM85.98 14.395c-1.318 0-2.36-.873-2.36-2.257v-.065c0-1.405.979-2.32 2.743-2.32 1.084 0 1.976.191 2.678.447v1.384c0 1.618-1.36 2.832-3.061 2.81zm-.34 1.277c1.637 0 2.72-.809 3.38-1.852v1.618h1.508V8.305c0-1.3-.382-2.321-1.063-3.003-.722-.724-1.764-1.107-3.102-1.107-1.36 0-2.444.383-3.486.894l.489 1.257c.765-.405 1.721-.746 2.827-.746 1.785 0 2.826.958 2.826 2.747v.66c-.829-.255-1.679-.447-2.848-.447-2.444 0-4.08 1.299-4.08 3.578v.084c0 2.194 1.7 3.45 3.549 3.45zm-6.997-.234h1.53V.064h-1.53v15.374zm-6.806-1.171c-1.743 0-3.358-1.661-3.358-4.259v-.213c0-2.598 1.615-4.28 3.358-4.28 1.7 0 3.146 1.597 3.146 4.301v.171c0 2.726-1.403 4.28-3.146 4.28zm-4.825 4.365h1.53v-5.26c.723 1.214 1.829 2.279 3.593 2.279 2.253 0 4.42-1.98 4.42-5.664v-.213c0-3.684-2.167-5.643-4.42-5.643-1.743 0-2.848 1.086-3.592 2.342V4.344h-1.53v14.288zm-6.815-2.896c2.061 0 3.592-.894 4.612-2.385l-2.657-2.406c-.425.575-.871.937-1.573.937-.913 0-1.593-.852-1.593-2.279v-.042c0-1.278.637-2.172 1.615-2.172.616 0 1.063.34 1.488.958l2.699-2.427c-.871-1.406-2.402-2.364-4.42-2.364-3.38 0-5.718 2.62-5.718 6.026v.234c0 3.386 2.274 5.92 5.547 5.92zm-10.851-.298h4.442V3.81h-4.442v11.627zm-.064-12.393h4.591V0h-4.59v3.045zm-5.346 12.67c2.912 0 4.655-1.533 4.655-4.004v-.042c0-2.087-1.446-2.96-3.954-3.79-1.04-.341-1.338-.49-1.338-.746v-.042c0-.213.19-.384.658-.384.83 0 2.062.405 3.061.98l1.467-2.917c-1.382-.852-3.04-1.235-4.634-1.235-2.784 0-4.633 1.49-4.633 3.939v.043c0 2.257 1.573 3.066 4.017 3.832 1.063.341 1.275.512 1.275.767v.021c0 .256-.212.405-.659.405-1.126 0-2.423-.469-3.634-1.257l-1.488 2.897c1.594 1.064 3.422 1.533 5.207 1.533zm-13.189 0c1.488 0 2.487-.852 3.146-1.746v1.469h4.463V3.81h-4.463v6.708c0 .788-.51 1.256-1.084 1.256-.595 0-1.041-.468-1.041-1.256V3.811h-4.464v8.135c0 2.3 1.275 3.769 3.443 3.769zm-21.839-.277h4.442v-6.75c0-.767.49-1.214 1.063-1.214.553 0 .999.447.999 1.214v6.75h4.442v-6.75c0-.767.489-1.214 1.062-1.214.574 0 1 .447 1 1.214v6.75h4.463V7.304c0-2.3-1.297-3.77-3.486-3.77-1.594 0-2.635.788-3.443 1.79-.531-1.108-1.53-1.79-2.997-1.79-1.445 0-2.465.852-3.103 1.747v-1.47H8.908v11.627z"/>
        <path fill="#E13223" d="M.906 2.62c-.5 0-.906.43-.906.961l.003 12.754c0 .172.044.346.135.503.262.45.818.59 1.242.312l9.708-6.37a.927.927 0 0 0 .306-.319c.261-.45.13-1.04-.294-1.318L1.448 2.811a.87.87 0 0 0-.542-.19zm99.119 2.27h1.634l-3.926 11.384c-.785 2.32-1.74 3.115-3.226 3.115-.7 0-1.359-.172-1.995-.516l.467-1.288c.424.236.891.408 1.443.408.828 0 1.358-.473 1.91-1.912l-4.244-11.19h1.655l3.31 9.214 2.972-9.214z"/>
    </g>
</svg>
