<!-- Generated by IcoMoon.io -->
<svg version="1.1" xmlns="http://www.w3.org/2000/svg" width="24" height="24" viewBox="0 0 24 24">
<title>settings</title>
<path fill="none" stroke="#fff" stroke-width="1" stroke-miterlimit="4" stroke-linecap="butt" stroke-linejoin="miter" d="M4.128 5.625l0.479 0.799-0.19 0.267c-0.361 0.502-0.689 1.074-0.957 1.679l-0.024 0.061-0.133 0.306-0.906-0.015c-0.865-0.015-1.698 0.675-1.848 1.525-0.15 0.852 0.4 1.785 1.214 2.066l0.874 0.301 0.022 0.332c0.048 0.729 0.169 1.409 0.357 2.061l-0.017-0.069 0.090 0.317-0.725 0.587c-0.672 0.544-0.867 1.609-0.435 2.356 0.432 0.75 1.453 1.11 2.258 0.802l0.835-0.32 0.23 0.244c0.453 0.482 0.955 0.914 1.496 1.29l0.268 0.185-0.174 0.9c-0.165 0.85 0.37 1.79 1.181 2.086 0.813 0.296 1.827-0.084 2.246-0.838l0.429-0.773 0.329 0.035c0.295 0.033 0.637 0.052 0.983 0.052 0.34 0 0.675-0.018 1.005-0.054l-0.041 0.004 0.329-0.035 0.428 0.773c0.42 0.755 1.434 1.132 2.246 0.837 0.813-0.296 1.345-1.238 1.181-2.085l-0.173-0.893 0.27-0.185c0.564-0.393 1.057-0.819 1.502-1.29l0.004-0.005 0.23-0.244 0.817 0.313c0.807 0.31 1.826-0.054 2.258-0.801 0.433-0.75 0.235-1.814-0.435-2.357l-0.707-0.573 0.090-0.317c0.173-0.588 0.295-1.273 0.341-1.979l0.002-0.029 0.022-0.332 0.861-0.297c0.817-0.282 1.365-1.215 1.215-2.065-0.15-0.853-0.986-1.54-1.848-1.526l-0.894 0.015-0.133-0.306c-0.294-0.67-0.625-1.245-1.010-1.779l0.020 0.028-0.19-0.267 0.472-0.787c0.445-0.741 0.264-1.808-0.397-2.363-0.663-0.557-1.745-0.547-2.396 0.019l-0.66 0.572-0.299-0.15c-0.524-0.269-1.136-0.502-1.774-0.669l-0.064-0.014-0.319-0.081-0.14-0.884c-0.136-0.855-0.96-1.555-1.824-1.555-0.865 0-1.688 0.703-1.823 1.555l-0.141 0.887-0.318 0.082c-0.7 0.182-1.31 0.416-1.884 0.709l0.052-0.024-0.3 0.15-0.665-0.578c-0.652-0.567-1.735-0.574-2.396-0.019-0.663 0.556-0.84 1.624-0.397 2.363zM12 18.39c-3.307 0-5.983-2.73-5.983-6.090 0-3.362 2.676-6.090 5.983-6.090s5.984 2.728 5.984 6.090c0 3.36-2.677 6.090-5.984 6.090z"></path>
</svg>
