<!-- Generated by IcoMoon.io -->
<svg version="1.1" xmlns="http://www.w3.org/2000/svg" width="16" height="20" viewBox="0 0 16 20">
<title>notification-config</title>
<path fill="none" stroke="#e13223" stroke-width="0.9091" stroke-miterlimit="4" stroke-linecap="butt" stroke-linejoin="miter" d="M14.886 8.027v-0.011c0.105-4.512-2.758-7.562-6.705-7.562-3.905 0-6.705 3.015-6.705 7.573v4.794c0 0.491-0.159 0.825-0.537 1.351l-0.060 0.083c-0.324 0.447-0.425 0.659-0.425 0.965 0 0.382 0.306 0.69 0.685 0.69h14.085c0 0 0 0 0 0 0.378 0 0.685-0.306 0.685-0.685 0-0.002 0-0.003-0-0.005v0c0-0.236-0.095-0.437-0.374-0.837l-0.055-0.079c-0.429-0.612-0.594-0.955-0.594-1.482v-4.795zM6.36 17.727l0.005 0.018c0.218 0.814 0.949 1.404 1.818 1.404 0.867 0 1.596-0.587 1.813-1.385l0.003-0.013 0.006-0.025h-3.645z"></path>
</svg>
