<!-- Generated by IcoMoon.io -->
<svg version="1.1" xmlns="http://www.w3.org/2000/svg" width="24" height="22" viewBox="0 0 24 22">
<title>notification</title>
<path fill="#999" d="M15.875 8.83c0.109-4.71-2.819-7.83-6.875-7.83-4.011 0-6.875 3.085-6.875 7.83v5.273c0 0.674-0.212 1.121-0.686 1.778-0.034 0.047-0.034 0.047-0.066 0.092-0.298 0.412-0.373 0.567-0.373 0.767 0 0.145 0.114 0.26 0.253 0.26h15.494c0.141 0 0.253-0.113 0.253-0.258 0-0.126-0.070-0.274-0.321-0.635-0.029-0.042-0.029-0.042-0.060-0.086-0.528-0.754-0.743-1.201-0.743-1.918v-5.273zM16.875 8.83v5.273c0 1.066 1.125 1.639 1.125 2.639 0 0.7-0.562 1.258-1.253 1.258h-15.494c-0.693 0-1.252-0.563-1.253-1.258 0.001-1.132 1.125-1.602 1.125-2.639v-5.273c0-5.455 3.456-8.83 7.875-8.83s8.002 3.375 7.875 8.83z"></path>
<path fill="#999" d="M7.5 19.5c0 0.276-0.224 0.5-0.5 0.5h0.799c-0.144-0.173-0.252-0.378-0.31-0.605-0-0.002-0.001-0.002-0.001-0.005 0.008 0.036 0.012 0.073 0.012 0.111zM11.010 20c-0.037 0-0.074-0.004-0.11-0.012-0.269-0.061-0.439-0.328-0.378-0.598-0.002 0.007-0.002 0.007-0.002 0.009-0.059 0.225-0.166 0.429-0.309 0.6h0.799zM6.513 19.612c-0.008-0.037-0.013-0.074-0.013-0.112 0-0.276 0.224-0.5 0.5-0.5h4.010c0.037 0 0.074 0.004 0.11 0.012 0.269 0.061 0.439 0.328 0.378 0.598-0.003 0.015-0.007 0.030-0.011 0.044-0.289 1.101-1.291 1.912-2.482 1.912-1.194 0-2.198-0.816-2.484-1.92-0.003-0.011-0.006-0.022-0.008-0.034z"></path>
<path fill="#999" d="M24 6c0 3.314-2.686 6-6 6s-6-2.686-6-6c0-3.314 2.686-6 6-6s6 2.686 6 6z"></path>
</svg>
