<!-- Generated by IcoMoon.io -->
<svg version="1.1" xmlns="http://www.w3.org/2000/svg" width="11" height="20" viewBox="0 0 11 20">
<title>payment-config</title>
<path fill="none" stroke="#e13223" stroke-width="0.9091" stroke-miterlimit="4" stroke-linecap="round" stroke-linejoin="miter" d="M0.909 13.682c0.285 2.394 1.83 3.591 4.635 3.591s4.285-0.985 4.443-2.955c0.128-1.575-0.67-2.733-2.395-3.475-2.588-1.114-5.655-1.525-6.358-3.945-0.705-2.418 1.5-4.171 4.311-4.171 2.491 0 4.415 1.611 4.443 3.16"></path>
<path fill="#e13223" d="M5.909 0c0.251 0 0.455 0.204 0.455 0.455v19.091c0 0.251-0.204 0.455-0.455 0.455s-0.455-0.204-0.455-0.455v-19.091c0-0.251 0.204-0.455 0.455-0.455z"></path>
</svg>
