<!-- Generated by IcoMoon.io -->
<svg version="1.1" xmlns="http://www.w3.org/2000/svg" width="12" height="22" viewBox="0 0 12 22">
<title>icon</title>
<path fill="none" stroke="#e13223" stroke-width="1" stroke-miterlimit="4" stroke-linecap="round" stroke-linejoin="miter" d="M1 15.050c0.314 2.634 2.013 3.95 5.098 3.95s4.714-1.084 4.887-3.25c0.141-1.731-0.738-3.005-2.636-3.822-2.846-1.225-6.218-1.678-6.994-4.339s1.651-4.588 4.742-4.588c2.739 0 4.856 1.772 4.887 3.476"></path>
<path fill="#e13223" d="M6.5 0c0.276 0 0.5 0.224 0.5 0.5v21c0 0.276-0.224 0.5-0.5 0.5s-0.5-0.224-0.5-0.5v-21c0-0.276 0.224-0.5 0.5-0.5z"></path>
</svg>
