<!-- Generated by IcoMoon.io -->
<svg version="1.1" xmlns="http://www.w3.org/2000/svg" width="21" height="22" viewBox="0 0 21 22">
<title>play</title>
<path fill="#000" d="M17.567 10.474l-12.633 6.843c-0.195 0.108-0.428 0.171-0.676 0.171-0.784 0-1.419-0.635-1.419-1.419v-13.686c0-0.784 0.636-1.419 1.419-1.419 0.248 0 0.481 0.064 0.684 0.175l-0.007-0.004 12.632 6.843c0.446 0.245 0.743 0.712 0.743 1.248s-0.297 1.003-0.736 1.244l-0.007 0.004z"></path>
<path fill="#6d6868" d="M17.567 10.474l-12.633 6.843c-0.195 0.108-0.428 0.171-0.676 0.171-0.784 0-1.419-0.635-1.419-1.419v-13.686c0-0.784 0.636-1.419 1.419-1.419 0.248 0 0.481 0.064 0.684 0.175l-0.007-0.004 12.632 6.843c0.446 0.245 0.743 0.712 0.743 1.248s-0.297 1.003-0.736 1.244l-0.007 0.004z"></path>
</svg>
