<!-- Generated by IcoMoon.io -->
<svg version="1.1" xmlns="http://www.w3.org/2000/svg" width="23" height="24" viewBox="0 0 23 24">
<title>play</title>
<path fill="#000" d="M19.164 11.426l-13.781 7.465c-0.213 0.118-0.467 0.187-0.738 0.187-0.855 0-1.548-0.693-1.548-1.548v-14.93c0-0.855 0.693-1.548 1.548-1.548 0.27 0 0.525 0.069 0.746 0.191l-0.008-0.004 13.781 7.465c0.487 0.267 0.811 0.777 0.811 1.361s-0.324 1.094-0.803 1.357l-0.008 0.004z"></path>
<path fill="#fff" d="M19.164 11.426l-13.781 7.465c-0.213 0.118-0.467 0.187-0.738 0.187-0.855 0-1.548-0.693-1.548-1.548v-14.93c0-0.855 0.693-1.548 1.548-1.548 0.27 0 0.525 0.069 0.746 0.191l-0.008-0.004 13.781 7.465c0.487 0.267 0.811 0.777 0.811 1.361s-0.324 1.094-0.803 1.357l-0.008 0.004z"></path>
</svg>
