<svg xmlns="http://www.w3.org/2000/svg" width="18" height="20" viewBox="0 0 18 20">
  <path fill="#e13223"  d="M16.5 0c-0.828 0-1.5 0.672-1.5 1.5v17c0 0.828 0.672 1.5 1.5 1.5s1.5-0.672 1.5-1.5v-17c0-0.828-0.672-1.5-1.5-1.5z"/>
  <path fill="#e13223"  d="M1.257 0c-0.694 0-1.257 0.587-1.257 1.31l0.005 17.384c0 0.235 0.060 0.472 0.186 0.686 0.364 0.614 1.135 0.804 1.724 0.425l13.474-8.681c0.175-0.111 0.318-0.257 0.421-0.43l0.003-0.006c0.363-0.613 0.181-1.417-0.408-1.796l-13.395-8.632c-0.21-0.163-0.47-0.26-0.752-0.26z"/>
</svg>
