<svg xmlns="http://www.w3.org/2000/svg" width="22" height="20" viewBox="0 0 22 20">
  <path fill="#fff" opacity="0.209584584"  d="M15.544 0c-1.647 0-3.325 0.66-4.552 2.014-1.26-1.354-2.905-2.014-4.552-2.014s-3.293 0.66-4.552 2.014c-2.517 2.708-2.517 7.118 0 9.826l9.104 8.16 9.136-8.16c1.259-1.354 1.872-3.125 1.872-4.896s-0.613-3.541-1.872-4.895c-1.26-1.39-2.906-2.049-4.584-2.049z"/>
  <path fill="none" stroke="#e13223" stroke-width="1" stroke-miterlimit="4" stroke-linecap="butt" stroke-linejoin="miter" style="stroke: var(--color2, #e13223)" d="M10.993 19.33l8.768-7.83c1.132-1.217 1.739-2.845 1.739-4.556s-0.607-3.338-1.743-4.56c-1.121-1.237-2.61-1.884-4.213-1.884-0.004 0-0.008-0-0.013-0-1.651 0-3.136 0.712-4.165 1.845l-0.004 0.005-0.365 0.403-0.371-0.399c-1.126-1.21-2.62-1.854-4.186-1.854s-3.060 0.645-4.185 1.854c-2.34 2.517-2.34 6.63-0.033 9.114l8.77 7.861z"/>
</svg>
