<svg version="1.1" xmlns="http://www.w3.org/2000/svg" width="12" height="13" viewBox="0 0 12 13">
<title>shape</title>
  <path d="M11.1 11.3c-1.4 1-3.2 1.5-5.1 1.5-0.1 0-0.1 0-0.2 0-1.8 0-3.5-0.4-4.9-1.3-0.2-0.1-0.3-0.2-0.3-0.4 0 0 0 0 0 0v-0.5c0.1-1.5 1.2-3.2 5.2-3.2h0.1c4.1 0 5.2 1.6 5.4 3 0 0 0 0.1 0 0.1s0 0 0 0v0.4c0.1 0.2 0 0.3-0.2 0.4zM10.4 10.5c0 0 0 0 0 0v0c0 0 0 0 0 0-0.3-1.9-2.5-2.2-4.4-2.2h-0.2c-1.8 0-4.1 0.5-4.3 2.3v0.2c1.3 0.7 2.7 1.1 4.4 1.1 1.6 0 3.1-0.4 4.4-1.2l0.1-0.2zM5.9 6c0 0 0 0 0 0-0.8 0-1.5-0.3-2-0.9s-0.8-1.4-0.8-2.2c0-1.6 1.1-2.8 2.7-2.8 0 0 0 0 0.1 0 1.6 0 2.7 1.1 2.7 2.7 0 0.8-0.3 1.6-0.7 2.2-0.6 0.6-1.2 1-2 1zM7.1 1.5c-0.3-0.3-0.7-0.4-1.3-0.4v0c-1.1 0-1.8 0.7-1.7 1.8 0 0.6 0.2 1.1 0.6 1.5 0.3 0.4 0.8 0.7 1.2 0.6 0.5 0 0.9-0.2 1.2-0.6s0.5-1 0.5-1.6c0-0.5-0.1-0.9-0.5-1.3z" fill="#F3B6B2"/>
</svg>
