<!-- Generated by IcoMoon.io -->
<svg version="1.1" xmlns="http://www.w3.org/2000/svg" width="13" height="13" viewBox="0 0 13 13">
<title>group</title>
<path fill="#000" opacity="0.046655999999999996" d="M13 6.5c0 3.59-2.91 6.5-6.5 6.5s-6.5-2.91-6.5-6.5c0-3.59 2.91-6.5 6.5-6.5s6.5 2.91 6.5 6.5z"></path>
<path fill="none" stroke="#fff" stroke-width="1" stroke-miterlimit="4" stroke-linecap="butt" stroke-linejoin="miter" d="M12.5 6.5c0 3.314-2.686 6-6 6s-6-2.686-6-6c0-3.314 2.686-6 6-6s6 2.686 6 6z"></path>
<path fill="#fff" d="M4.5 6h4c0.276 0 0.5 0.224 0.5 0.5s-0.224 0.5-0.5 0.5h-4c-0.276 0-0.5-0.224-0.5-0.5s0.224-0.5 0.5-0.5z"></path>
<path fill="#fff" d="M7 4.5v4c0 0.276-0.224 0.5-0.5 0.5s-0.5-0.224-0.5-0.5v-4c0-0.276 0.224-0.5 0.5-0.5s0.5 0.224 0.5 0.5z"></path>
</svg>
