<!-- Generated by IcoMoon.io -->
<svg version="1.1" xmlns="http://www.w3.org/2000/svg" width="12" height="13" viewBox="0 0 12 13">
<title>shape</title>
<path fill="none" stroke="#fff" stroke-width="1" stroke-miterlimit="4" stroke-linecap="butt" stroke-linejoin="miter" d="M5.42 0.5c-1.378 0.025-2.32 0.934-2.295 2.34 0.027 1.502 1.108 2.679 2.383 2.656 1.276-0.022 2.315-1.235 2.288-2.738-0.024-1.406-0.996-2.281-2.375-2.257zM10.625 11.006c1.416 45.367 1.41 45.208 1.404 45.048l-1.421-45.494c-0.002-0.045-0.005-0.082-0.003-0.073-0.247-1.803-2.016-2.67-4.976-2.62l-0.030 0.002-0.060 0.002h-0.070c-2.96 0.051-4.697 0.98-4.88 2.792-0.001 0.121-0.002 0.264-0.002 0.407 0 0.040 0 0.079 0 0.119l-0-0.006c1.43 0.903 3.118 1.35 5.044 1.316 1.89-0.033 3.591-0.55 4.995-1.493zM10.605 10.486v0.001z"></path>
</svg>
