<svg xmlns="http://www.w3.org/2000/svg" width="18" height="22" viewBox="0 0 18 22">
    <path fill="none" stroke="#999" d="M8.988.5C6.581.5 4.875 2.155 4.875 4.736c0 2.729 1.861 4.911 4.113 4.911 2.253 0 4.114-2.182 4.114-4.911C13.102 2.155 11.396.5 8.988.5zm8.483 18.465a22161.97 22161.97 0 0 1-.018-.955l-.005-.157c-.377-3.282-3.376-4.882-8.33-4.882l-.06.002-.08.002-.061-.002h-.002l-.058-.002c-4.954 0-7.954 1.6-8.33 4.883-.002.03-.009.31-.017.804l-.005.31C2.887 20.64 5.73 21.5 8.988 21.5c3.2 0 6.093-.88 8.483-2.535z"/>
</svg>
