<!-- Generated by IcoMoon.io -->
<svg version="1.1" xmlns="http://www.w3.org/2000/svg" width="16" height="16" viewBox="0 0 16 16">
<title>shape</title>
<path fill="#9b9b9b" opacity="0.5" d="M8 16c-4.418 0-8-3.582-8-8s3.582-8 8-8v0c4.418 0 8 3.582 8 8s-3.582 8-8 8v0zM6.77 4.62v3.99c0 0.34 0.277 0.62 0.62 0.62h1.22c0.001 0 0.001 0 0.002 0 0.341 0 0.618-0.277 0.618-0.618 0-0.001 0-0.001 0-0.002v0-3.99c0-0.339-0.277-0.62-0.62-0.62h-1.22c-0.001 0-0.001 0-0.002 0-0.341 0-0.618 0.277-0.618 0.618 0 0.001 0 0.001 0 0.002v-0zM6.77 10.775v1.22c0 0.348 0.277 0.62 0.62 0.62h1.22c0.001 0 0.001 0 0.002 0 0.341 0 0.618-0.277 0.618-0.618 0-0.001 0-0.001 0-0.002v0-1.22c0-0.001 0-0.002 0-0.003 0-0.341-0.277-0.618-0.618-0.618-0.001 0-0.001 0-0.002 0h-1.22c-0.001 0-0.001 0-0.002 0-0.341 0-0.618 0.277-0.618 0.618 0 0.001 0 0.002 0 0.003v-0z"></path>
</svg>
