<!-- Generated by IcoMoon.io -->
<svg version="1.1" xmlns="http://www.w3.org/2000/svg" width="29" height="20" viewBox="0 0 29 20">
<title>send</title>
<path d="M10.412 12.902l-2.285 4.312-0.003-5.517 15.539-8.115-13.252 9.32zM28.915 0.464c-0.192-0.281-0.511-0.464-0.873-0.464-0.077 0-0.153 0.008-0.225 0.024l0.007-0.001-26.99 5.742c-0.48 0.105-0.833 0.526-0.833 1.030 0 0.403 0.227 0.753 0.56 0.93l0.006 0.003 5.905 3.082 0.032 7.725c0.002 0.58 0.473 1.049 1.053 1.049 0.265 0 0.506-0.098 0.691-0.259l-0.001 0.001 5.455-4.731 3.964 2.057c0.141 0.075 0.308 0.119 0.485 0.119 0.362 0 0.681-0.182 0.87-0.46l0.002-0.004 9.892-14.664c0.113-0.165 0.18-0.369 0.18-0.589s-0.067-0.424-0.183-0.593l0.002 0.004z"></path>
</svg>
