<svg xmlns="http://www.w3.org/2000/svg" width="20" height="20" viewBox="0 0 20 20">
    <path fill="#FFF" fill-rule="evenodd" d="M3.341 5.334l-.09-.15c-.567-.946-.342-2.287.504-2.997l-.506.425c.846-.71 2.209-.698 3.039.023l.096.083a8.066 8.066 0 0 1 1.61-.602l.023-.145C8.19.882 9.224 0 10.329 0h-.66c1.103 0 2.14.886 2.312 1.97l.022.143a8.065 8.065 0 0 1 1.616.6l.091-.079c.832-.722 2.192-.733 3.039-.023l-.507-.425c.846.71 1.07 2.055.505 2.997l-.084.14c.34.477.63.991.867 1.536l.14-.002c1.101-.019 2.15.847 2.342 1.935l-.115-.651c.192 1.087-.5 2.261-1.54 2.62l-.145.05a8.51 8.51 0 0 1-.302 1.76l.122.098c.856.694 1.103 2.032.55 2.989l.33-.573c-.551.956-1.836 1.41-2.862 1.018l-.114-.044c-.4.424-.843.805-1.322 1.136l.03.155c.21 1.082-.461 2.265-1.5 2.643l.622-.226c-1.038.378-2.314-.1-2.847-1.061l-.065-.116a8.162 8.162 0 0 1-1.71-.001l-.065.116c-.535.963-1.809 1.439-2.847 1.06l.621.227c-1.038-.378-1.708-1.565-1.499-2.643l.031-.162a8.31 8.31 0 0 1-1.313-1.131l-.128.049c-1.03.394-2.31-.06-2.863-1.018l.33.573c-.552-.956-.303-2.296.55-2.988l.137-.11a8.51 8.51 0 0 1-.298-1.747l-.157-.054C.601 10.401-.088 9.23.103 8.141l-.114.652c.192-1.088 1.244-1.954 2.343-1.936l.149.003a8.418 8.418 0 0 1 .86-1.526zM10 14.907c2.523 0 4.569-2.085 4.569-4.658 0-2.573-2.046-4.659-4.57-4.659-2.523 0-4.568 2.086-4.568 4.659s2.045 4.658 4.569 4.658z"/>
</svg>
