<svg xmlns="http://www.w3.org/2000/svg" width="16" height="12" viewBox="0 0 16 12">
    <g fill="none" fill-rule="evenodd" stroke="#FFF">
        <path d="M5.55 8.044a.03.03 0 0 0 .002 0zm.006 0h.033c.027 0 .052-.014.07-.047.927-1.67 2.97-2.2 5.369-2.142l.488.011V7.95c0 .027.024.062.072.083a.083.083 0 0 0 .083-.016l3.576-3.687.004-.003c.025-.026.024-.078-.016-.117L11.633.524c-.024-.024-.05-.03-.097-.009-.024.01-.048.044-.048.073v2.069l-.474.025c-1.72.09-3.023.624-3.999 1.61A5.32 5.32 0 0 0 5.5 7.963c0 .037.025.071.056.082z"/>
        <path d="M5.825 2.5H.5v9h9V6.607L5.825 2.5z"/>
    </g>
</svg>
