<svg xmlns="http://www.w3.org/2000/svg" width="39" height="32"  viewBox="0 0 39 32">
    <path fill="none" stroke="#fff" stroke-width="1.1429" stroke-miterlimit="4" stroke-linecap="butt" stroke-linejoin="miter" style="stroke: var(--color1, #fff)" d="M16 0.571c-8.521 0-15.429 6.907-15.429 15.429s6.907 15.429 15.429 15.429 15.429-6.907 15.429-15.429-6.907-15.429-15.429-15.429z"/>
    <path fill="#fff" d="M22.855 20.35c0.040 0.775-0.819 1.602-2.118 1.961-1.491 0.411-2.998 0.047-3.365-0.814-0.366-0.861 0.546-1.893 2.038-2.304 0.896-0.247 1.797-0.215 2.454 0.038v-8.789l-9.409 0.891-0.037 10.503c0.003 0.027 0.004 0.059 0.004 0.091s-0.001 0.064-0.004 0.095l0-0.004c-0.071 0.731-0.901 1.477-2.114 1.811-1.493 0.411-3 0.047-3.366-0.814s0.546-1.893 2.038-2.304c0.888-0.245 1.781-0.215 2.435 0.031v-11.598l11.446-1.146-0.002 12.35zM32 22.857c3.787 0 6.857-3.070 6.857-6.857s-3.070-6.857-6.857-6.857v0c-3.787 0-6.857 3.070-6.857 6.857s3.070 6.857 6.857 6.857v0z"/>
    <path fill="#e13223"  d="M32.889 11.278l2.311 2.862c0.158 0.194 0.253 0.445 0.253 0.718 0 0.631-0.512 1.143-1.143 1.143h-4.623c-0.631-0.001-1.141-0.512-1.141-1.143 0-0.273 0.096-0.523 0.255-0.72l-0.002 0.002 2.311-2.862c0.211-0.26 0.531-0.425 0.889-0.425s0.678 0.165 0.887 0.423l0.002 0.002z"/>
    <path fill="none" stroke="#e13223" stroke-width="2.2857" stroke-miterlimit="4" stroke-linecap="round" stroke-linejoin="round"  d="M32 14.327v5.714"/>
</svg>
