<!-- Generated by IcoMoon.io -->
<svg version="1.1" xmlns="http://www.w3.org/2000/svg" width="35" height="32" viewBox="0 0 35 32">
<title>group-10</title>
<path fill="#fff" d="M1.6 16c0.884 0 1.6 0.716 1.6 1.6s-0.716 1.6-1.6 1.6v0c-0.884 0-1.6-0.716-1.6-1.6s0.716-1.6 1.6-1.6v0zM1.6 22.4c0.884 0 1.6 0.716 1.6 1.6s-0.716 1.6-1.6 1.6v0c-0.884 0-1.6-0.716-1.6-1.6s0.716-1.6 1.6-1.6v0zM1.6 28.8c0.884 0 1.6 0.716 1.6 1.6s-0.716 1.6-1.6 1.6v0c-0.884 0-1.6-0.716-1.6-1.6s0.716-1.6 1.6-1.6v0zM6.4 16h19.2v1.6h-19.2v-1.6zM1.6 9.6c0.884 0 1.6 0.716 1.6 1.6s-0.716 1.6-1.6 1.6v0c-0.884 0-1.6-0.716-1.6-1.6s0.716-1.6 1.6-1.6v0zM6.4 9.6h12.8v1.6h-12.8v-1.6zM6.4 22.4h19.2v1.6h-19.2v-1.6zM6.4 28.8h19.2v1.6h-19.2v-1.6z"></path>
<path fill="#000" opacity="0.046655999999999996" d="M35.2 8.8c0 4.86-3.94 8.8-8.8 8.8s-8.8-3.94-8.8-8.8c0-4.86 3.94-8.8 8.8-8.8s8.8 3.94 8.8 8.8z"></path>
<path fill="none" stroke="#fff" stroke-width="1.6" stroke-miterlimit="4" stroke-linecap="butt" stroke-linejoin="miter" d="M34.4 8.8c0 4.418-3.582 8-8 8s-8-3.582-8-8c0-4.418 3.582-8 8-8s8 3.582 8 8z"></path>
<path fill="#fff" d="M23.2 8h6.4c0.442 0 0.8 0.358 0.8 0.8s-0.358 0.8-0.8 0.8h-6.4c-0.442 0-0.8-0.358-0.8-0.8s0.358-0.8 0.8-0.8z"></path>
<path fill="#fff" d="M27.2 5.6v6.4c0 0.442-0.358 0.8-0.8 0.8s-0.8-0.358-0.8-0.8v-6.4c0-0.442 0.358-0.8 0.8-0.8s0.8 0.358 0.8 0.8z"></path>
</svg>
