<svg xmlns="http://www.w3.org/2000/svg" width="34" height="34"   viewBox="0 0 34 34">
  <path fill="none" stroke="#fff" stroke-width="1.2143" stroke-miterlimit="4" stroke-linecap="butt" stroke-linejoin="miter" d="M17 0.607c-9.054 0-16.393 7.339-16.393 16.393s7.339 16.393 16.393 16.393 16.393-7.339 16.393-16.393-7.339-16.393-16.393-16.393z"/>
  <path fill="#000" d="M25.092 19.090l-9.797 5.79c-0.354 0.212-0.78 0.338-1.236 0.338-1.341 0-2.429-1.087-2.429-2.429 0-0 0-0 0-0.001v-11.577c0-0.001 0-0.002 0-0.002 0-1.341 1.087-2.429 2.429-2.429 0.456 0 0.884 0.126 1.248 0.345l-0.011-0.006 9.797 5.79c0.719 0.431 1.192 1.205 1.192 2.090s-0.474 1.66-1.181 2.084l-0.011 0.006z"/>
  <path fill="#fff" d="M25.092 19.090l-9.797 5.79c-0.354 0.212-0.78 0.338-1.236 0.338-1.341 0-2.429-1.087-2.429-2.429 0-0 0-0 0-0.001v-11.577c0-0.001 0-0.002 0-0.002 0-1.341 1.087-2.429 2.429-2.429 0.456 0 0.884 0.126 1.248 0.345l-0.011-0.006 9.797 5.79c0.719 0.431 1.192 1.205 1.192 2.090s-0.474 1.66-1.181 2.084l-0.011 0.006z"/>
</svg>
