<svg xmlns="http://www.w3.org/2000/svg" width="34" height="28" viewBox="0 0 34 28">
  <path fill="none" stroke="#fff" stroke-width="1" stroke-miterlimit="4" stroke-linecap="butt" stroke-linejoin="miter" style="stroke: var(--color1, #fff)" d="M14 0.5c-7.456 0-13.5 6.044-13.5 13.5s6.044 13.5 13.5 13.5 13.5-6.044 13.5-13.5-6.044-13.5-13.5-13.5z"/>
  <path fill="#fff" style="fill: var(--color1, #fff)" d="M19.998 17.806c0.035 0.678-0.717 1.402-1.853 1.716-1.305 0.36-2.623 0.041-2.944-0.712s0.478-1.656 1.783-2.016c0.784-0.216 1.572-0.188 2.147 0.033v-7.69l-8.233 0.78-0.032 9.19c0.002 0.024 0.004 0.052 0.004 0.080s-0.001 0.056-0.004 0.084l0-0.004c-0.062 0.64-0.788 1.292-1.85 1.585-1.306 0.36-2.625 0.041-2.945-0.712s0.478-1.656 1.783-2.016c0.777-0.214 1.558-0.188 2.131 0.027v-10.148l10.015-1.003-0.002 10.806zM28 20c3.314 0 6-2.686 6-6s-2.686-6-6-6v0c-3.314 0-6 2.686-6 6s2.686 6 6 6v0z"/>
  <path fill="#000" stroke="#b91a1c" stroke-width="2" stroke-miterlimit="4" stroke-linecap="round" stroke-linejoin="round" style="stroke: var(--color3, #b91a1c)" d="M25.17 14h5.657M27.998 11.172v5.656"/>
</svg>
