<!-- Generated by IcoMoon.io -->
<svg version="1.1" xmlns="http://www.w3.org/2000/svg" width="80" height="16" viewBox="0 0 80 16">
<title>stacked-group</title>
<path fill="#fff" d="M72.008 15.992c-4.418 0-8-3.582-8-8s3.582-8 8-8c4.418 0 8 3.582 8 8s-3.582 8-8 8z"></path>
<path fill="#fff" d="M40.008 15.992c-4.418 0-8-3.582-8-8s3.582-8 8-8c4.418 0 8 3.582 8 8s-3.582 8-8 8z"></path>
<path fill="#fff" d="M8.008 15.992c-4.418 0-8-3.582-8-8s3.582-8 8-8c4.418 0 8 3.582 8 8s-3.582 8-8 8z"></path>
</svg>
