<!-- Generated by IcoMoon.io -->
<svg version="1.1" xmlns="http://www.w3.org/2000/svg" width="14" height="20" viewBox="0 0 14 20">
<title>terms-config</title>
<path fill="none" stroke="#e13223" stroke-width="0.7143" stroke-miterlimit="4" stroke-linecap="butt" stroke-linejoin="miter" d="M7.146 12.656l-0.008 0.001-0.027 0.004c0 0-0.011 0.002-0.022 0.003l-0.011 0.001-0.927 0.645-0.208-0.266-0.524-0.669-1.155 0.346-0.113-0.323-0.276-0.795-1.2-0.023-0.006-0.344-0.016-0.852-1.121-0.388 0.099-0.329 0.25-0.821-0.939-0.731 0.194-0.279 0.492-0.702-0.694-0.991 0.286-0.206 0.693-0.496-0.347-1.151 1.121-0.387v-1.23l0.35-0.007 0.856-0.015 0.389-1.118 1.154 0.346 0.732-0.935 0.983 0.684 0.986-0.686 0.207 0.27 0.539 0.7 1.155-0.346 0.112 0.323 0.276 0.795 1.2 0.023 0.007 0.344 0.016 0.875 1.104 0.382-0.099 0.329-0.25 0.821 0.939 0.731-0.194 0.279-0.492 0.702 0.686 0.98-0.937 0.73 0.346 1.152-0.324 0.112-0.798 0.275-0.023 1.196-0.344 0.007-0.855 0.016-0.389 1.118-1.155-0.346-0.731 0.934-0.988-0.687z"></path>
<path fill="none" stroke="#e13223" stroke-width="0.7143" stroke-miterlimit="4" stroke-linecap="butt" stroke-linejoin="miter" d="M7.143 3.929c1.781 0 3.214 1.433 3.214 3.214-0.004 1.774-1.441 3.21-3.214 3.214h-0c-1.774-0.004-3.21-1.441-3.214-3.214v-0c0.004-1.774 1.441-3.21 3.214-3.214h0zM4.643 16.071v3.382l2.543-1.114 2.457 1.108v-3.376h-5z"></path>
</svg>
